<svg width="16" height="13" viewBox="0 0 16 13" fill="none" xmlns="http://www.w3.org/2000/svg">
<path id="Vector" d="M11.8543 8.10322L14.0361 9.1821C14.2543 9.29003 14.5139 9.31441 14.7632 9.23079C15.0117 9.14675 15.2023 8.96939 15.3102 8.75113C15.4182 8.53287 15.4434 8.27372 15.3593 8.02526L12.7197 0.0427246L4.77468 2.79107C4.52622 2.87511 4.33474 3.05205 4.22681 3.2703C4.11888 3.48856 4.0945 3.74814 4.17854 3.9966C4.26258 4.24506 4.44037 4.43697 4.65778 4.54448L6.77982 5.59385C5.56244 7.90975 3.87095 10.2618 0.00610352 10.7326L0.858674 11.1542C4.80863 13.1075 9.53253 11.7298 11.8543 8.10322Z" fill="#2F58CD"/>
</svg>
