<svg width="25" height="25" viewBox="0 0 25 25" fill="none" xmlns="http://www.w3.org/2000/svg">
<g id="flash ">
<g id="calendar check">
<path id="Vector" d="M20.7866 4.1382H19.6186V3.38455C19.6186 3.14489 19.5234 2.91505 19.3539 2.74558C19.1845 2.57611 18.9546 2.48091 18.7149 2.48091H17.8863C17.6466 2.48091 17.4168 2.57611 17.2473 2.74558C17.0779 2.91505 16.9827 3.14489 16.9827 3.38455V4.1382H13.8181V3.38455C13.8181 3.14489 13.7229 2.91505 13.5534 2.74558C13.3839 2.57611 13.1541 2.48091 12.9144 2.48091H12.0858C11.8461 2.48091 11.6163 2.57611 11.4468 2.74558C11.2774 2.91505 11.1821 3.14489 11.1821 3.38455V4.1382H8.01757V3.38455C8.01757 3.14489 7.92237 2.91505 7.7529 2.74558C7.58343 2.57611 7.35359 2.48091 7.11393 2.48091H6.28528C6.04562 2.48091 5.81577 2.57611 5.64631 2.74558C5.47684 2.91505 5.38164 3.14489 5.38164 3.38455V4.1382H4.21367C3.86412 4.1382 3.52889 4.27705 3.28173 4.52422C3.03456 4.77139 2.8957 5.10662 2.8957 5.45616V20.3718C2.8957 20.7213 3.03456 21.0565 3.28173 21.3037C3.52889 21.5509 3.86412 21.6897 4.21367 21.6897H20.7866C21.1361 21.6897 21.4713 21.5509 21.7185 21.3037C21.9657 21.0565 22.1045 20.7213 22.1045 20.3718V5.45616C22.1045 5.10662 21.9657 4.77139 21.7185 4.52422C21.4713 4.27705 21.1361 4.1382 20.7866 4.1382ZM17.9613 3.45955H18.6399V5.79549H17.9613V3.45955ZM12.1608 3.45955H12.8394V4.5778V4.57781V4.57782V4.57782V4.57783V4.57784V4.57785V4.57786V4.57787V4.57788V4.57789V4.57789V4.5779V4.57791V4.57792V4.57793V4.57794V4.57796V4.57797V4.57798V4.578V4.57801V4.57801V4.57802V4.57803V4.57804V4.57804V4.57805V4.57806V4.57807V4.57808V4.57809V4.5781V4.57811V4.57812V4.57813V4.57814V4.57815V4.57816V4.57817V4.57818V4.57819V4.57821V4.57822V4.57823V4.57824V4.57825V4.57827V4.57828V4.57829V4.57831V4.57832V4.57834V4.57835V4.57836V4.57838V4.57839V4.57841V4.57843V4.57844V4.57846V4.57847V4.57849V4.57851V4.57852V4.57854V4.57856V4.57858V4.5786V4.57861V4.57863V4.57865V4.57867V4.57869V4.57871V4.57873V4.57875V4.57877V4.5788V4.57882V4.57884V4.57886V4.57888V4.57891V4.57893V4.57895V4.57898V4.579V4.57903V4.57905V4.57908V4.5791V4.57913V4.57915V4.57918V4.57921V4.57923V4.57926V4.57929V4.57932V4.57935V4.57938V4.57941V4.57943V4.57946V4.5795V4.57953V4.57956V4.57959V4.57962V4.57965V4.57969V4.57972V4.57975V4.57979V4.57982V4.57986V4.57989V4.57993V4.57996V4.58V4.58003V4.58007V4.58011V4.58015V4.58018V4.58022V4.58026V4.5803V4.58034V4.58038V4.58042V4.58046V4.58051V4.58055V4.58059V4.58063V4.58068V4.58072V4.58076V4.58081V4.58085V4.5809V4.58095V4.58099V4.58104V4.58109V4.58113V4.58118V4.58123V4.58128V4.58133V4.58138V4.58143V4.58148V4.58153V4.58159V4.58164V4.58169V4.58175V4.5818V4.58185V4.58191V4.58196V4.58202V4.58208V4.58213V4.58219V4.58225V4.58231V4.58237V4.58243V4.58249V4.58255V4.58261V4.58267V4.58273V4.58279V4.58286V4.58292V4.58299V4.58305V4.58312V4.58318V4.58325V4.58332V4.58338V4.58345V4.58352V4.58359V4.58366V4.58373V4.5838V4.58387V4.58394V4.58402V4.58409V4.58416V4.58424V4.58431V4.58439V4.58446V4.58454V4.58462V4.58469V4.58477V4.58485V4.58493V4.58501V4.58509V4.58517V4.58526V4.58534V4.58542V4.5855V4.58559V4.58567V4.58576V4.58585V4.58593V4.58602V4.58611V4.5862V4.58629V4.58638V4.58647V4.58656V4.58665V4.58674V4.58684V4.58693V4.58702V4.58712V4.58721V4.58731V4.58741V4.58751V4.5876V4.5877V4.5878V4.5879V4.588V4.58811V4.58821V4.58831V4.58841V4.58852V4.58862V4.58873V4.58884V4.58894V4.58905V4.58916V4.58927V4.58938V4.58949V4.5896V4.58971V4.58983V4.58994V4.59005V4.59017V4.59028V4.5904V4.59052V4.59064V4.59075V4.59087V4.59099V4.59111V4.59123V4.59136V4.59148V4.5916V4.59173V4.59185V4.59198V4.59211V4.59223V4.59236V4.59249V4.59262V4.59275V4.59288V4.59301V4.59314V4.59328V4.59341V4.59355V4.59368V4.59382V4.59396V4.5941V4.59423V4.59437V4.59451V4.59466V4.5948V4.59494V4.59508V4.59523V4.59537V4.59552V4.59567V4.59581V4.59596V4.59611V4.59626V4.59641V4.59656V4.59672V4.59687V4.59702V4.59718V4.59734V4.59749V4.59765V4.59781V4.59797V4.59813V4.59829V4.59845V4.59861V4.59878V4.59894V4.59911V4.59927V4.59944V4.59961V4.59977V4.59994V4.60011V4.60029V4.60046V4.60063V4.6008V4.60098V4.60115V4.60133V4.60151V4.60169V4.60187V4.60205V4.60223V4.60241V4.60259V4.60278V4.60296V4.60315V4.60333V4.60352V4.60371V4.6039V4.60409V4.60428V4.60447V4.60466V4.60486V4.60505V4.60525V4.60544V4.60564V4.60584V4.60604V4.60624V4.60644V4.60664V4.60684V4.60705V4.60725V4.60746V4.60767V4.60787V4.60808V4.60829V4.6085V4.60871V4.60893V4.60914V4.60936V4.60957V4.60979V4.61001V4.61022V4.61044V4.61066V4.61089V4.61111V4.61133V4.61156V4.61178V4.61201V4.61224V4.61246V4.61269V4.61293V4.61316V4.61339V4.61362V4.61386V4.61409V4.61433V4.61457V4.61481V4.61505V4.61529V4.61553V4.61577V4.61602V4.61626V4.61651V4.61675V4.617V4.61725V4.6175V4.61775V4.618V4.61826V4.61851V4.61877V4.61902V4.61928V4.61954V4.6198V4.62006V4.62032V4.62059V4.62085V4.62112V4.62138V4.62165V4.62192V4.62219V4.62246V4.62273V4.623V4.62328V4.62355V4.62383V4.6241V4.62438V4.62466V4.62494V4.62523V4.62551V4.62579V4.62608V4.62636V4.62665V4.62694V4.62723V4.62752V4.62781V4.6281V4.62838V4.62867V4.62895V4.62923V4.6295V4.62978V4.63005V4.63032V4.63059V4.63085V4.63112V4.63138V4.63164V4.6319V4.63215V4.6324V4.63265V4.6329V4.63315V4.63339V4.63364V4.63388V4.63412V4.63435V4.63459V4.63482V4.63505V4.63528V4.6355V4.63573V4.63595V4.63617V4.63639V4.6366V4.63682V4.63703V4.63724V4.63745V4.63766V4.63786V4.63807V4.63827V4.63847V4.63866V4.63886V4.63905V4.63924V4.63943V4.63962V4.63981V4.63999V4.64018V4.64036V4.64054V4.64071V4.64089V4.64106V4.64124V4.64141V4.64157V4.64174V4.64191V4.64207V4.64223V4.64239V4.64255V4.64271V4.64287V4.64302V4.64317V4.64332V4.64347V4.64362V4.64376V4.64391V4.64405V4.64419V4.64433V4.64447V4.64461V4.64474V4.64488V4.64501V4.64514V4.64527V4.6454V4.64552V4.64565V4.64577V4.64589V4.64601V4.64613V4.64625V4.64636V4.64648V4.64659V4.6467V4.64682V4.64692V4.64703V4.64714V4.64724V4.64735V4.64745V4.64755V4.64765V4.64775V4.64785V4.64795V4.64804V4.64814V4.64823V4.64832V4.64841V4.6485V4.64859V4.64867V4.64876V4.64884V4.64893V4.64901V4.64909V4.64917V4.64925V4.64932V4.6494V4.64948V4.64955V4.64962V4.6497V4.64977V4.64984V4.64991V4.64997V4.65004V4.65011V4.65017V4.65024V4.6503V4.65036V4.65042V4.65048V4.65054V4.6506V4.65066V4.65071V4.65077V4.65082V4.65088V4.65093V4.65098V4.65103V4.65108V4.65113V4.65118V4.65123V4.65127V4.65132V4.65137V4.65141V4.65145V4.6515V4.65154V4.65158V4.65162V4.65166V4.6517V4.65174V4.65178V4.65181V4.65185V4.65189V4.65192V4.65196V4.65199V4.65202V4.65206V4.65209V4.65212V4.65215V4.65218V4.65221V4.65224V4.65227V4.6523V4.65232V4.65235V4.65238V4.6524V4.65243V4.65245V4.65248V4.6525V4.65252V4.65255V4.65257V4.65259V4.65261V4.65263V4.65265V4.65267V4.65269V4.65271V4.65273V4.65275V4.65277V4.65279V4.65281V4.65282V4.65284V4.65286V4.65287V4.65289V4.65291V4.65292V4.65294V4.65295V4.65297V4.65298V4.653V4.65301V4.65302V4.65304V4.65305V4.65306V4.65308V4.65309V4.6531V4.65312V4.65313V4.65314V4.65315V4.65317V4.65318V4.65319V4.6532V4.65321V4.65323V4.65324V4.65325V4.65326V4.65327V4.65328V4.6533V4.65331V4.65332V4.65333V4.65334V4.65336V4.65337V4.65338V4.65339V4.6534V4.65341V4.65343V4.65344V4.65345V4.65346V4.65348V4.65349V4.6535V4.65352V4.65353V4.65354V4.65356V4.65357V4.65358V4.6536V4.65361V4.65363V4.65364V4.65366V4.65367V4.65369V4.6537V4.65372V4.65374V4.65375V4.65377V4.65379V4.65381V4.65383V4.65384V4.65386V4.65388V4.6539V4.65392V4.65394V4.65396V4.65399V4.65401V4.65403V4.65405V4.65407V4.6541V4.65412V4.65415V4.65417V4.6542V4.65422V4.65425V4.65428V4.6543V4.65433V4.65436V4.65439V4.65442V4.65445V4.65448V4.65451V4.65455V4.65458V4.65461V4.65465V4.65468V4.65472V4.65475V4.65479V4.65483V4.65487V4.65491V4.65494V4.65498V4.65503V4.65507V4.65511V4.65515V4.6552V4.65524V4.65529V4.65534V4.65538V4.65543V4.65548V4.65553V4.65558V4.65563V4.65568V4.65574V4.65579V4.65585V4.6559V4.65596V4.65602V4.65608V4.65613V4.6562V4.65626V4.65632V4.65638V4.65645V4.65651V4.65658V4.65665V4.65671V4.65678V4.65685V4.65693V4.657V4.65707V4.65715V4.65722V4.6573V4.65738V4.65746V4.65754V4.65762V4.6577V4.65779V4.65787V4.65796V4.65804V4.65813V4.65822V4.65831V4.6584V4.6585V4.65859V4.65869V4.65878V4.65888V4.65898V4.65908V4.65918V4.65929V4.65939V4.6595V4.65961V4.65972V4.65983V4.65994V4.66005V4.66016V4.66028V4.6604V4.66051V4.66063V4.66075V4.66088V4.661V4.66113V4.66125V4.66138V4.66151V4.66164V4.66178V4.66191V4.66205V4.66218V4.66232V4.66246V4.6626V4.66275V4.66289V4.66304V4.66319V4.66334V4.66349V4.66364V4.6638V4.66395V4.66411V4.66427V4.66443V4.66459V4.66476V4.66493V4.66509V4.66526V4.66543V4.66561V4.66578V4.66596V4.66614V4.66632V4.6665V4.66668V4.66687V4.66706V4.66724V4.66744V4.66763V4.66782V4.66802V4.66822V4.66842V4.66862V4.66882V4.66903V4.66924V4.66945V4.66966V4.66987V4.67009V4.6703V4.67052V4.67074V4.67097V4.67119V4.67142V4.67165V4.67188V4.67211V4.67235V4.67259V4.67283V4.67307V4.67331V4.67356V4.6738V4.67405V4.6743V4.67456V4.67481V4.67507V4.67533V4.6756V4.67586V4.67613V4.6764V4.67667V4.67694V4.67722V4.67749V4.67777V4.67806V4.67834V4.67863V4.67892V4.67921V4.6795V4.6798V4.6801V4.6804V4.6807V4.681V4.68131V4.68162V4.68193V4.68225V4.68256V4.68288V4.68321V4.68353V4.68386V4.68418V4.68452V4.68485V4.68519V4.68552V5.79549H12.1608V3.45955ZM6.36028 3.45955H7.03893V5.79549H6.36028V3.45955ZM4.21367 5.11684H5.38164V5.87049C5.38164 6.11015 5.47684 6.33999 5.64631 6.50946C5.81577 6.67893 6.04562 6.77413 6.28528 6.77413H7.11393C7.35359 6.77413 7.58343 6.67893 7.7529 6.50946C7.92237 6.33999 8.01757 6.11015 8.01757 5.87049V5.11684H11.1821V5.87049C11.1821 6.11015 11.2774 6.33999 11.4468 6.50946C11.6163 6.67893 11.8461 6.77413 12.0858 6.77413H12.9144C13.1541 6.77413 13.3839 6.67893 13.5534 6.50946C13.7229 6.33999 13.8181 6.11015 13.8181 5.87049V5.11684H16.9827V5.87049C16.9827 6.11015 17.0779 6.33999 17.2473 6.50946C17.4168 6.67893 17.6466 6.77413 17.8863 6.77413H18.7149C18.9546 6.77413 19.1845 6.67893 19.3539 6.50946C19.5234 6.33999 19.6186 6.11015 19.6186 5.87049V5.11684H20.7866C20.8766 5.11684 20.9629 5.15259 21.0265 5.21623C21.0901 5.27986 21.1259 5.36617 21.1259 5.45616V8.28142H3.87435V5.45616C3.87435 5.36617 3.9101 5.27986 3.97373 5.21623C4.03737 5.15259 4.12368 5.11684 4.21367 5.11684ZM20.7866 20.7111H4.21367C4.12368 20.7111 4.03737 20.6753 3.97373 20.6117C3.9101 20.5481 3.87435 20.4618 3.87435 20.3718V9.26006H21.1259V20.3718C21.1259 20.4618 21.0901 20.5481 21.0265 20.6117C20.9629 20.6753 20.8766 20.7111 20.7866 20.7111Z" fill="#414042" stroke="#414042" stroke-width="0.15"/>
<path id="Vector_2" d="M12.5581 18.3763V18.3755H12.5006H12.5001V18.3005C12.4458 18.3011 12.3919 18.2904 12.342 18.269C12.292 18.2476 12.2471 18.216 12.2101 18.1762L12.5581 18.3763ZM12.5581 18.3763L12.5696 18.3746C12.643 18.3632 12.7129 18.3353 12.774 18.2929C12.8349 18.2506 12.8854 18.195 12.9217 18.1302C12.9218 18.1301 12.9218 18.13 12.9219 18.1299L16.2357 12.3307C16.2687 12.2757 16.2903 12.2147 16.2994 12.1512C16.3085 12.0875 16.3046 12.0225 16.2882 11.9603C16.2717 11.898 16.2429 11.8397 16.2034 11.7888C16.1642 11.7382 16.1153 11.6959 16.0596 11.6645M12.5581 18.3763L12.1561 18.2283L8.84249 14.9146C8.75151 14.8236 8.70039 14.7002 8.70039 14.5716C8.70039 14.4429 8.75151 14.3195 8.84249 14.2285C8.93347 14.1375 9.05688 14.0864 9.18555 14.0864C9.31422 14.0864 9.43761 14.1375 9.5286 14.2285L9.52853 14.2284L9.47557 14.2815L9.52861 14.2285L12.3926 17.0843L15.393 11.8418C15.393 11.8416 15.3931 11.8415 15.3932 11.8414C15.4247 11.7854 15.4671 11.7363 15.5179 11.6969C15.5688 11.6575 15.6271 11.6286 15.6894 11.6122C15.7516 11.5957 15.8166 11.5919 15.8803 11.601C15.9437 11.61 16.0046 11.6316 16.0596 11.6645M16.0596 11.6645C16.0592 11.6643 16.0589 11.6641 16.0586 11.6639L16.0219 11.7293L16.0605 11.665C16.0602 11.6648 16.0599 11.6647 16.0596 11.6645Z" fill="#414042" stroke="#414042" stroke-width="0.15"/>
</g>
</g>
</svg>
