<svg width="24" height="25" viewBox="0 0 24 25" fill="none" xmlns="http://www.w3.org/2000/svg">
<g id="calendar_month_FILL1_wght400_GRAD0_opsz48 1">
<path id="Vector" d="M12.0042 14.0427C11.7208 14.0427 11.4833 13.9469 11.2917 13.7552C11.1 13.5636 11.0042 13.3261 11.0042 13.0427C11.0042 12.7594 11.1 12.5219 11.2917 12.3302C11.4833 12.1386 11.7208 12.0427 12.0042 12.0427C12.2875 12.0427 12.525 12.1386 12.7167 12.3302C12.9083 12.5219 13.0042 12.7594 13.0042 13.0427C13.0042 13.3261 12.9083 13.5636 12.7167 13.7552C12.525 13.9469 12.2875 14.0427 12.0042 14.0427ZM8.00415 14.0427C7.72082 14.0427 7.48332 13.9469 7.29165 13.7552C7.09998 13.5636 7.00415 13.3261 7.00415 13.0427C7.00415 12.7594 7.09998 12.5219 7.29165 12.3302C7.48332 12.1386 7.72082 12.0427 8.00415 12.0427C8.28748 12.0427 8.52498 12.1386 8.71665 12.3302C8.90832 12.5219 9.00415 12.7594 9.00415 13.0427C9.00415 13.3261 8.90832 13.5636 8.71665 13.7552C8.52498 13.9469 8.28748 14.0427 8.00415 14.0427ZM16.0042 14.0427C15.7208 14.0427 15.4833 13.9469 15.2917 13.7552C15.1 13.5636 15.0042 13.3261 15.0042 13.0427C15.0042 12.7594 15.1 12.5219 15.2917 12.3302C15.4833 12.1386 15.7208 12.0427 16.0042 12.0427C16.2875 12.0427 16.525 12.1386 16.7167 12.3302C16.9083 12.5219 17.0042 12.7594 17.0042 13.0427C17.0042 13.3261 16.9083 13.5636 16.7167 13.7552C16.525 13.9469 16.2875 14.0427 16.0042 14.0427ZM12.0042 18.0427C11.7208 18.0427 11.4833 17.9469 11.2917 17.7552C11.1 17.5636 11.0042 17.3261 11.0042 17.0427C11.0042 16.7594 11.1 16.5219 11.2917 16.3302C11.4833 16.1386 11.7208 16.0427 12.0042 16.0427C12.2875 16.0427 12.525 16.1386 12.7167 16.3302C12.9083 16.5219 13.0042 16.7594 13.0042 17.0427C13.0042 17.3261 12.9083 17.5636 12.7167 17.7552C12.525 17.9469 12.2875 18.0427 12.0042 18.0427ZM8.00415 18.0427C7.72082 18.0427 7.48332 17.9469 7.29165 17.7552C7.09998 17.5636 7.00415 17.3261 7.00415 17.0427C7.00415 16.7594 7.09998 16.5219 7.29165 16.3302C7.48332 16.1386 7.72082 16.0427 8.00415 16.0427C8.28748 16.0427 8.52498 16.1386 8.71665 16.3302C8.90832 16.5219 9.00415 16.7594 9.00415 17.0427C9.00415 17.3261 8.90832 17.5636 8.71665 17.7552C8.52498 17.9469 8.28748 18.0427 8.00415 18.0427ZM16.0042 18.0427C15.7208 18.0427 15.4833 17.9469 15.2917 17.7552C15.1 17.5636 15.0042 17.3261 15.0042 17.0427C15.0042 16.7594 15.1 16.5219 15.2917 16.3302C15.4833 16.1386 15.7208 16.0427 16.0042 16.0427C16.2875 16.0427 16.525 16.1386 16.7167 16.3302C16.9083 16.5219 17.0042 16.7594 17.0042 17.0427C17.0042 17.3261 16.9083 17.5636 16.7167 17.7552C16.525 17.9469 16.2875 18.0427 16.0042 18.0427ZM4.50415 22.0427C4.10415 22.0427 3.75415 21.8927 3.45415 21.5927C3.15415 21.2927 3.00415 20.9427 3.00415 20.5427V5.04272C3.00415 4.64272 3.15415 4.29272 3.45415 3.99272C3.75415 3.69272 4.10415 3.54272 4.50415 3.54272H6.12915V2.04272H7.75415V3.54272H16.2542V2.04272H17.8792V3.54272H19.5042C19.9042 3.54272 20.2542 3.69272 20.5542 3.99272C20.8542 4.29272 21.0042 4.64272 21.0042 5.04272V20.5427C21.0042 20.9427 20.8542 21.2927 20.5542 21.5927C20.2542 21.8927 19.9042 22.0427 19.5042 22.0427H4.50415ZM4.50415 20.5427H19.5042V9.79272H4.50415V20.5427Z" fill="#797779"/>
</g>
</svg>
