<svg width="24" height="25" viewBox="0 0 24 25" fill="none" xmlns="http://www.w3.org/2000/svg">
<path d="M22.7625 6.98656C22.6123 6.98656 22.4682 7.04625 22.3619 7.15249C22.2557 7.25873 22.196 7.40283 22.196 7.55308V11.5188H21.0629V7.55308C21.0629 7.40283 21.0032 7.25873 20.897 7.15249C20.7908 7.04625 20.6467 6.98656 20.4964 6.98656H15.3977V5.8535H19.3633C19.5136 5.8535 19.6577 5.79382 19.7639 5.68757C19.8702 5.58133 19.9299 5.43723 19.9299 5.28698V3.02087C19.9299 2.87062 19.8702 2.72652 19.7639 2.62028C19.6577 2.51403 19.5136 2.45435 19.3633 2.45435H8.03281C7.88256 2.45435 7.73846 2.51403 7.63222 2.62028C7.52597 2.72652 7.46629 2.87062 7.46629 3.02087V5.28698C7.46629 5.43723 7.52597 5.58133 7.63222 5.68757C7.73846 5.79382 7.88256 5.8535 8.03281 5.8535H11.9985V6.98656H6.89976C6.79464 6.98656 6.69159 7.01581 6.60214 7.07104C6.5127 7.12627 6.44038 7.2053 6.39329 7.29928L5.41659 9.25266H3.5006C3.35035 9.25266 3.20625 9.31235 3.10001 9.4186C2.99376 9.52484 2.93408 9.66894 2.93408 9.81919V11.5188H1.80102V8.68614C1.80102 8.53589 1.74133 8.39179 1.63509 8.28554C1.52885 8.1793 1.38475 8.11961 1.2345 8.11961C1.08424 8.11961 0.940145 8.1793 0.833901 8.28554C0.727656 8.39179 0.667969 8.53589 0.667969 8.68614V17.7506C0.667969 17.9008 0.727656 18.0449 0.833901 18.1512C0.940145 18.2574 1.08424 18.3171 1.2345 18.3171C1.38475 18.3171 1.52885 18.2574 1.63509 18.1512C1.74133 18.0449 1.80102 17.9008 1.80102 17.7506V14.9179H2.93408V17.7506C2.93408 17.9008 2.99376 18.0449 3.10001 18.1512C3.20625 18.2574 3.35035 18.3171 3.5006 18.3171H5.5299L8.71265 21.5474C8.76508 21.6006 8.8275 21.6429 8.89634 21.6719C8.96518 21.7009 9.03906 21.7159 9.11375 21.7162H18.2303C18.3354 21.7162 18.4385 21.687 18.5279 21.6318C18.6174 21.5765 18.6897 21.4975 18.7368 21.4035L21.0029 16.8713C21.0424 16.7925 21.0629 16.7056 21.0629 16.6175V14.9179H22.196V20.0167C22.196 20.1669 22.2557 20.311 22.3619 20.4173C22.4682 20.5235 22.6123 20.5832 22.7625 20.5832C22.9128 20.5832 23.0569 20.5235 23.1631 20.4173C23.2693 20.311 23.329 20.1669 23.329 20.0167V7.55308C23.329 7.40283 23.2693 7.25873 23.1631 7.15249C23.0569 7.04625 22.9128 6.98656 22.7625 6.98656ZM8.59934 3.5874H18.7968V4.72045H8.59934V3.5874ZM13.1316 5.8535H14.2646V6.98656H13.1316V5.8535ZM1.80102 13.7849V12.6518H2.93408V13.7849H1.80102ZM19.9299 16.4838L17.8802 20.5832H9.35169L6.17007 17.3529C6.11738 17.2994 6.05458 17.2569 5.98534 17.228C5.91609 17.199 5.84177 17.184 5.76671 17.184H4.06713V10.3857H5.76671C5.87183 10.3857 5.97488 10.3565 6.06433 10.3012C6.15377 10.246 6.22609 10.167 6.27318 10.073L7.24987 8.11961H19.9299V16.4838ZM21.0629 13.7849V12.6518H22.196V13.7849H21.0629Z" fill="#414042"/>
<path d="M15.9638 13.7851H12.1114L14.1917 10.0981C14.2283 10.0333 14.2518 9.96183 14.2608 9.88788C14.2698 9.81394 14.2641 9.73895 14.2441 9.66719C14.2241 9.59544 14.1902 9.52832 14.1443 9.46968C14.0983 9.41103 14.0413 9.36201 13.9764 9.32541C13.9116 9.2888 13.8401 9.26533 13.7662 9.25634C13.6922 9.24735 13.6172 9.25302 13.5455 9.27301C13.4737 9.293 13.4066 9.32693 13.348 9.37285C13.2893 9.41878 13.2403 9.47581 13.2037 9.54069L10.6475 14.0729C10.5988 14.1591 10.5735 14.2567 10.5742 14.3557C10.575 14.4548 10.6016 14.552 10.6516 14.6375C10.7016 14.723 10.7732 14.794 10.8591 14.8432C10.9451 14.8925 11.0425 14.9183 11.1415 14.9182H15.0472L13.1912 18.63C13.1572 18.6966 13.1367 18.7693 13.1309 18.8438C13.1251 18.9184 13.1341 18.9933 13.1574 19.0644C13.1807 19.1354 13.2179 19.2011 13.2667 19.2577C13.3155 19.3144 13.3751 19.3608 13.4419 19.3943C13.5088 19.4278 13.5816 19.4477 13.6562 19.4529C13.7308 19.4581 13.8056 19.4485 13.8765 19.4247C13.9474 19.4008 14.0128 19.3632 14.069 19.3139C14.1253 19.2647 14.1712 19.2048 14.2042 19.1376L16.4703 14.6054C16.5136 14.5191 16.534 14.4231 16.5298 14.3265C16.5255 14.23 16.4966 14.1362 16.4458 14.054C16.3951 13.9718 16.3242 13.9039 16.2398 13.8569C16.1554 13.8098 16.0604 13.7851 15.9638 13.7851Z" fill="#414042"/>
</svg>
