<svg width="24" height="25" viewBox="0 0 24 25" fill="none" xmlns="http://www.w3.org/2000/svg">
<g id="flash ">
<g id="Group">
<path id="Vector" d="M11.9993 3.96997H3.88433C3.7306 3.96997 3.58316 4.03104 3.47446 4.13974C3.36576 4.24845 3.30469 4.39588 3.30469 4.54961V10.346C3.30469 10.4997 3.36576 10.6472 3.47446 10.7559C3.58316 10.8646 3.7306 10.9257 3.88433 10.9257H11.9993C12.153 10.9257 12.3005 10.8646 12.4092 10.7559C12.5179 10.6472 12.5789 10.4997 12.5789 10.346V4.54961C12.5789 4.39588 12.5179 4.24845 12.4092 4.13974C12.3005 4.03104 12.153 3.96997 11.9993 3.96997ZM11.4197 9.76638H8.52145V7.44781C8.52145 7.29408 8.46038 7.14665 8.35168 7.03795C8.24298 6.92924 8.09554 6.86817 7.94181 6.86817C7.78808 6.86817 7.64065 6.92924 7.53194 7.03795C7.42324 7.14665 7.36217 7.29408 7.36217 7.44781V9.76638H4.46397V5.12925H11.4197V9.76638Z" fill="#414042"/>
<path id="Vector_2" d="M21.2737 8.6073H20.6825V8.14359L21.8418 2.34718C21.857 2.27258 21.8574 2.19571 21.843 2.12096C21.8285 2.04621 21.7994 1.97505 21.7574 1.91153C21.7154 1.84801 21.6614 1.79339 21.5983 1.75078C21.5352 1.70817 21.4643 1.67841 21.3897 1.6632C21.2392 1.63474 21.0835 1.66637 20.9561 1.75133C20.8287 1.83628 20.7396 1.96779 20.708 2.11764L19.5348 8.02766L19.5058 17.9013C19.4964 18.1986 19.3716 18.4805 19.158 18.6875C18.9443 18.8945 18.6585 19.0102 18.3611 19.0102C18.0636 19.0102 17.7778 18.8945 17.5641 18.6875C17.3505 18.4805 17.2257 18.1986 17.2163 17.9013V10.3462C17.2163 9.88503 17.0331 9.44273 16.7069 9.11662C16.3808 8.79051 15.9385 8.6073 15.4773 8.6073H14.8977V3.39053C14.8977 2.92934 14.7145 2.48704 14.3884 2.16093C14.0623 1.83482 13.62 1.65161 13.1588 1.65161H2.72525C2.26406 1.65161 1.82176 1.83482 1.49565 2.16093C1.16954 2.48704 0.986328 2.92934 0.986328 3.39053V19.6205C0.986328 20.3891 1.29167 21.1263 1.83519 21.6698C2.37871 22.2133 3.11588 22.5187 3.88453 22.5187H11.9995C12.7682 22.5187 13.5053 22.2133 14.0488 21.6698C14.5924 21.1263 14.8977 20.3891 14.8977 19.6205V9.76658H15.4773C15.6311 9.76658 15.7785 9.82765 15.8872 9.93635C15.9959 10.0451 16.057 10.1925 16.057 10.3462V17.8966C16.0696 18.4988 16.3174 19.0721 16.7473 19.4939C17.1773 19.9156 17.7554 20.1523 18.3577 20.1532C18.96 20.1541 19.5387 19.9192 19.9699 19.4987C20.4012 19.0783 20.6507 18.5057 20.6651 17.9036L20.6756 12.0851H22.433C22.5868 12.0851 22.7342 12.0241 22.8429 11.9154C22.9516 11.8067 23.0127 11.6592 23.0127 11.5055V10.3462C23.0127 9.88503 22.8295 9.44273 22.5034 9.11662C22.1772 8.79051 21.7349 8.6073 21.2737 8.6073ZM13.7384 19.6205C13.7384 20.0817 13.5552 20.524 13.2291 20.8501C12.903 21.1762 12.4607 21.3594 11.9995 21.3594H3.88453C3.42334 21.3594 2.98104 21.1762 2.65493 20.8501C2.32882 20.524 2.14561 20.0817 2.14561 19.6205V3.39053C2.14561 3.2368 2.20668 3.08937 2.31538 2.98067C2.42409 2.87196 2.57152 2.81089 2.72525 2.81089H13.1588C13.3125 2.81089 13.4599 2.87196 13.5686 2.98067C13.6774 3.08937 13.7384 3.2368 13.7384 3.39053V19.6205ZM21.8534 10.9259H20.6779V9.76658H21.2737C21.4275 9.76658 21.5749 9.82765 21.6836 9.93635C21.7923 10.0451 21.8534 10.1925 21.8534 10.3462V10.9259Z" fill="#414042"/>
</g>
</g>
</svg>
