<svg width="24" height="25" viewBox="0 0 24 25" fill="none" xmlns="http://www.w3.org/2000/svg">
<g id="solar:info-circle-bold">
<path id="Vector" fill-rule="evenodd" clip-rule="evenodd" d="M22.0017 12.0703C22.0027 17.5933 17.5265 22.071 12.0035 22.072C6.48046 22.073 2.00268 17.5967 2.00173 12.0737C2.00077 6.55073 6.477 2.07296 12 2.072C17.523 2.07105 22.0008 6.54727 22.0017 12.0703ZM12.0027 17.822C12.2016 17.822 12.3924 17.7429 12.533 17.6022C12.6736 17.4616 12.7526 17.2708 12.7526 17.0719L12.7516 11.0719C12.7515 10.873 12.6725 10.6822 12.5318 10.5416C12.3911 10.401 12.2003 10.322 12.0014 10.322C11.8025 10.322 11.6118 10.4011 11.4711 10.5418C11.3305 10.6824 11.2515 10.8732 11.2516 11.0721L11.2526 17.0721C11.2527 17.4861 11.5887 17.8221 12.0027 17.822ZM12.0009 7.072C12.2661 7.07196 12.5205 7.17727 12.708 7.36477C12.8956 7.55228 13.001 7.80661 13.001 8.07183C13.0011 8.33704 12.8958 8.59142 12.7083 8.77899C12.5208 8.96655 12.2664 9.07196 12.0012 9.072C11.736 9.07205 11.4816 8.96673 11.2941 8.77923C11.1065 8.59173 11.0011 8.33739 11.001 8.07217C11.001 7.80696 11.1063 7.55259 11.2938 7.36502C11.4813 7.17745 11.7356 7.07205 12.0009 7.072Z" fill="#2F58CD"/>
</g>
</svg>
