<svg width="24" height="25" viewBox="0 0 24 25" fill="none" xmlns="http://www.w3.org/2000/svg">
<g id="location_on_FILL1_wght400_GRAD0_opsz48 1">
<path id="Vector" d="M12.0064 11.7927C12.4882 11.7927 12.9 11.6212 13.2417 11.278C13.5833 10.9349 13.7542 10.5224 13.7542 10.0405C13.7542 9.55865 13.5826 9.14689 13.2394 8.80522C12.8963 8.46356 12.4838 8.29272 12.0019 8.29272C11.5201 8.29272 11.1083 8.4643 10.7667 8.80745C10.425 9.15058 10.2542 9.56308 10.2542 10.0449C10.2542 10.5268 10.4257 10.9386 10.7689 11.2802C11.112 11.6219 11.5245 11.7927 12.0064 11.7927ZM12.0042 22.0427C9.32082 19.7594 7.31665 17.6386 5.99165 15.6802C4.66665 13.7219 4.00415 11.9094 4.00415 10.2427C4.00415 7.74272 4.80832 5.75106 6.41665 4.26772C8.02498 2.78439 9.88748 2.04272 12.0042 2.04272C14.1208 2.04272 15.9833 2.78439 17.5917 4.26772C19.2 5.75106 20.0042 7.74272 20.0042 10.2427C20.0042 11.9094 19.3417 13.7219 18.0167 15.6802C16.6917 17.6386 14.6875 19.7594 12.0042 22.0427Z" fill="#797779"/>
</g>
</svg>
