<svg width="24" height="25" viewBox="0 0 24 25" fill="none" xmlns="http://www.w3.org/2000/svg">
<g id="flash ">
<g id="v">
<g id="Group">
<path id="Vector" d="M9.51197 8.29394H16.9697C17.2424 8.29394 17.459 8.06561 17.459 7.78928C17.459 7.51296 17.2424 7.28462 16.9697 7.28462H9.51197C9.23924 7.28462 9.02266 7.51296 9.02266 7.78928C9.02266 8.06561 9.23924 8.29394 9.51197 8.29394Z" fill="#414042" stroke="#414042" stroke-width="0.15"/>
<path id="Vector_2" d="M18.7044 3.49146V3.41646H18.6294H17.8008H17.7258V3.49146V7.78808V7.86308H17.8008H18.6294H18.7044V7.78808V3.49146Z" fill="#414042" stroke="#414042" stroke-width="0.15"/>
<path id="Vector_3" d="M16.4869 7.5441C16.4013 7.7032 16.4052 7.89784 16.4976 8.05312C17.3003 9.40227 17.7248 10.9453 17.7248 12.5153C17.7248 17.2149 14.0385 21.0336 9.51342 21.0336C4.98838 21.0336 1.30207 17.2149 1.30207 12.5153C1.30207 7.8157 4.98838 3.99707 9.51342 3.99707H20.2106V7.28437H16.9147C16.736 7.28437 16.5726 7.3847 16.4869 7.5441ZM16.4869 7.5441L16.553 7.57966L16.4869 7.54416C16.4869 7.54414 16.4869 7.54412 16.4869 7.5441ZM0.323437 12.5153C0.323437 17.7663 4.44341 22.0429 9.51342 22.0429C14.5834 22.0429 18.7034 17.7663 18.7034 12.5153C18.7034 11.0504 18.3736 9.60706 17.7437 8.2937H20.7C20.9727 8.2937 21.1893 8.06536 21.1893 7.78903V3.49241C21.1893 3.21608 20.9727 2.98774 20.7 2.98774H9.51342C4.44341 2.98774 0.323437 7.2643 0.323437 12.5153Z" fill="#414042" stroke="#414042" stroke-width="0.15"/>
<path id="Vector_4" d="M20.6995 9.15297H23.1854C23.4581 9.15297 23.6747 8.92463 23.6747 8.64831V2.63303C23.6747 2.35671 23.4581 2.12837 23.1854 2.12837H20.6995C20.4267 2.12837 20.2102 2.35671 20.2102 2.63303V8.64831C20.2102 8.92463 20.4267 9.15297 20.6995 9.15297ZM22.6961 3.13769V8.14365H21.1888V3.13769H22.6961Z" fill="#414042" stroke="#414042" stroke-width="0.15"/>
<path id="Vector_5" d="M10.0013 7.78931V7.71431H9.92629H9.09766H9.02266V7.78931V11.2266V11.3016H9.09766H9.92629H10.0013V11.2266V7.78931Z" fill="#414042" stroke="#414042" stroke-width="0.15"/>
<path id="Vector_6" d="M6.63598 8.81622L6.58392 8.76223L6.53186 8.81622L5.94599 9.42379L5.89393 9.47778L5.94599 9.53177L8.28987 11.9625L8.34193 12.0165L8.39399 11.9625L8.97986 11.3549L9.03192 11.3009L8.97986 11.2469L6.63598 8.81622Z" fill="#414042" stroke="#414042" stroke-width="0.15"/>
<path id="Vector_7" d="M8.34462 12.0852V12.0102H8.26962H4.95508H4.88008V12.0852V12.9445V13.0195H4.95508H8.26962H8.34462V12.9445V12.0852Z" fill="#414042" stroke="#414042" stroke-width="0.15"/>
<path id="Vector_8" d="M8.39399 13.0683L8.34193 13.0143L8.28987 13.0683L5.94599 15.499L5.89393 15.553L5.94599 15.607L6.53186 16.2145L6.58392 16.2685L6.63598 16.2145L8.97986 13.7839L9.03192 13.7299L8.97986 13.6759L8.39399 13.0683Z" fill="#414042" stroke="#414042" stroke-width="0.15"/>
<path id="Vector_9" d="M10.0013 13.804V13.729H9.92629H9.09766H9.02266V13.804V17.2413V17.3163H9.09766H9.92629H10.0013V17.2413V13.804Z" fill="#414042" stroke="#414042" stroke-width="0.15"/>
<path id="Vector_10" d="M10.7375 13.0701L10.6855 13.0161L10.6334 13.0701L10.0475 13.6777L9.99549 13.7317L10.0475 13.7857L12.3914 16.2164L12.4435 16.2704L12.4955 16.2164L13.0814 15.6088L13.1335 15.5548L13.0814 15.5008L10.7375 13.0701Z" fill="#414042" stroke="#414042" stroke-width="0.15"/>
<path id="Vector_11" d="M14.1454 12.0852V12.0102H14.0704H10.7559H10.6809V12.0852V12.9445V13.0195H10.7559H14.0704H14.1454V12.9445V12.0852Z" fill="#414042" stroke="#414042" stroke-width="0.15"/>
<path id="Vector_12" d="M12.4956 8.81537L12.4435 8.76138L12.3914 8.81537L10.0475 11.2461L9.99549 11.3L10.0475 11.354L10.6334 11.9616L10.6855 12.0156L10.7375 11.9616L13.0814 9.53092L13.1335 9.47693L13.0814 9.42294L12.4956 8.81537Z" fill="#414042" stroke="#414042" stroke-width="0.15"/>
<path id="Vector_13" d="M4.46797 12.5156C4.46797 15.3976 6.7294 17.7465 9.51478 17.7465C12.3002 17.7465 14.5616 15.3976 14.5616 12.5156C14.5616 9.63358 12.3002 7.28462 9.51478 7.28462C6.7294 7.28462 4.46797 9.63358 4.46797 12.5156ZM5.4466 12.5156C5.4466 10.1854 7.27412 8.29394 9.51478 8.29394C11.7554 8.29394 13.583 10.1854 13.583 12.5156C13.583 14.8458 11.7554 16.7372 9.51478 16.7372C7.27412 16.7372 5.4466 14.8458 5.4466 12.5156Z" fill="#414042" stroke="#414042" stroke-width="0.15"/>
<path id="Vector_14" d="M7.78047 12.5167C7.78047 13.5035 8.55496 14.3104 9.51274 14.3104C10.4705 14.3104 11.245 13.5035 11.245 12.5167C11.245 11.53 10.4705 10.7231 9.51274 10.7231C8.55496 10.7231 7.78047 11.53 7.78047 12.5167ZM8.7591 12.5167C8.7591 12.0819 9.09973 11.7324 9.51274 11.7324C9.92575 11.7324 10.2664 12.0819 10.2664 12.5167C10.2664 12.9516 9.92575 13.3011 9.51274 13.3011C9.09973 13.3011 8.7591 12.9516 8.7591 12.5167Z" fill="#414042" stroke="#414042" stroke-width="0.15"/>
</g>
</g>
</g>
</svg>
