<svg width="25" height="25" viewBox="0 0 25 25" fill="none" xmlns="http://www.w3.org/2000/svg">
<g id="flash ">
<g id="Group">
<path id="Vector" d="M12.5 1.49634C10.0835 1.49578 7.72996 2.28217 5.78193 3.74102C3.83391 5.19987 2.39314 7.25501 1.6694 9.60724C0.945662 11.9595 0.976727 14.486 1.75807 16.819C2.53942 19.1519 4.03026 21.1695 6.01354 22.5781C6.10055 22.6395 6.20382 22.6726 6.30965 22.6728H18.6904C18.7963 22.6726 18.8995 22.6395 18.9865 22.5781C20.9698 21.1695 22.4606 19.1519 23.242 16.819C24.0233 14.486 24.0544 11.9595 23.3307 9.60724C22.6069 7.25501 21.1662 5.19987 19.2181 3.74102C17.2701 2.28217 14.9165 1.49578 12.5 1.49634ZM18.5264 21.6202H6.47369C4.70195 20.3194 3.38022 18.4788 2.69862 16.3632C2.01702 14.2476 2.01066 11.9659 2.68047 9.84635C3.35027 7.72679 4.66172 5.87859 6.42619 4.56755C8.19066 3.25651 10.3172 2.5502 12.5 2.5502C14.6828 2.5502 16.8094 3.25651 18.5739 4.56755C20.3384 5.87859 21.6498 7.72679 22.3196 9.84635C22.9894 11.9659 22.983 14.2476 22.3014 16.3632C21.6198 18.4788 20.2981 20.3194 18.5264 21.6202Z" fill="#414042"/>
<path id="Vector_2" d="M12.5116 7.2934C12.6484 7.2934 12.7796 7.23795 12.8764 7.13925C12.9731 7.04054 13.0275 6.90668 13.0275 6.76709L13.0161 4.12714C13.0161 3.98755 12.9618 3.85368 12.865 3.75498C12.7683 3.65628 12.6371 3.60083 12.5002 3.60083C12.3634 3.60083 12.2322 3.65628 12.1355 3.75498C12.0387 3.85368 11.9844 3.98755 11.9844 4.12714L11.9957 6.76709C11.9957 6.90668 12.0501 7.04054 12.1468 7.13925C12.2436 7.23795 12.3748 7.2934 12.5116 7.2934Z" fill="#414042"/>
<path id="Vector_3" d="M7.77438 8.98069C7.82102 9.03542 7.87824 9.07973 7.94245 9.11083C8.00666 9.14194 8.07649 9.15917 8.14753 9.16144C8.21858 9.16371 8.28932 9.15098 8.35532 9.12404C8.42132 9.0971 8.48115 9.05654 8.53105 9.0049C8.58096 8.95325 8.61987 8.89164 8.64533 8.82394C8.6708 8.75623 8.68227 8.68388 8.67904 8.61143C8.6758 8.53899 8.65792 8.468 8.62653 8.40294C8.59513 8.33787 8.5509 8.28013 8.49659 8.23333L6.66321 6.37547C6.56393 6.28991 6.43666 6.24573 6.30684 6.25177C6.17701 6.2578 6.05421 6.31361 5.96297 6.40802C5.87173 6.50244 5.81878 6.62851 5.81471 6.76103C5.81063 6.89355 5.85574 7.02276 5.941 7.12282L7.77438 8.98069Z" fill="#414042"/>
<path id="Vector_4" d="M6.31829 12.5383L3.73071 12.5499C3.59389 12.5499 3.46268 12.6054 3.36594 12.7041C3.26919 12.8028 3.21484 12.9366 3.21484 13.0762C3.21484 13.2158 3.26919 13.3497 3.36594 13.4484C3.46268 13.5471 3.59389 13.6025 3.73071 13.6025L6.31829 13.5909C6.45511 13.5909 6.58632 13.5355 6.68306 13.4368C6.77981 13.3381 6.83416 13.2042 6.83416 13.0646C6.83416 12.9251 6.77981 12.7912 6.68306 12.6925C6.58632 12.5938 6.45511 12.5383 6.31829 12.5383Z" fill="#414042"/>
<path id="Vector_5" d="M21.2695 12.55L18.6819 12.5616C18.5451 12.5616 18.4139 12.6171 18.3171 12.7158C18.2204 12.8145 18.166 12.9483 18.166 13.0879C18.166 13.2275 18.2204 13.3614 18.3171 13.4601C18.4139 13.5588 18.5451 13.6142 18.6819 13.6142L21.2695 13.6027C21.4063 13.6027 21.5375 13.5472 21.6342 13.4485C21.731 13.3498 21.7853 13.2159 21.7853 13.0764C21.7853 12.9368 21.731 12.8029 21.6342 12.7042C21.5375 12.6055 21.4063 12.55 21.2695 12.55Z" fill="#414042"/>
<path id="Vector_6" d="M16.879 9.1496C16.9472 9.14958 17.0146 9.13581 17.0774 9.10907C17.1403 9.08233 17.1974 9.04316 17.2453 8.99381L19.0663 7.11911C19.1502 7.01782 19.1935 6.88797 19.1876 6.75552C19.1816 6.62307 19.1269 6.49778 19.0344 6.4047C18.9419 6.31161 18.8183 6.25759 18.6884 6.25343C18.5585 6.24928 18.4319 6.29529 18.3338 6.38228L16.5128 8.25277C16.4411 8.32655 16.3924 8.42033 16.3729 8.52229C16.3533 8.62424 16.3638 8.72982 16.403 8.82572C16.4421 8.92161 16.5082 9.00354 16.593 9.06118C16.6777 9.11881 16.7772 9.14958 16.879 9.1496Z" fill="#414042"/>
<path id="Vector_7" d="M12.5007 15.1811C12.8149 15.1824 13.122 15.0857 13.3809 14.9039C13.6397 14.7222 13.8379 14.464 13.9489 14.1641C14.0599 13.8642 14.0784 13.5369 14.0019 13.2259C13.9255 12.915 13.7577 12.6353 13.5211 12.4243L15.1327 8.33916C15.1837 8.20962 15.1822 8.06471 15.1285 7.9363C15.0748 7.80789 14.9733 7.7065 14.8464 7.65443C14.7194 7.60237 14.5774 7.60389 14.4515 7.65867C14.3256 7.71345 14.2263 7.817 14.1752 7.94653L12.5647 12.0275C12.543 12.0275 12.5224 12.0212 12.5007 12.0212C12.0903 12.0212 11.6966 12.1875 11.4064 12.4837C11.1162 12.7798 10.9531 13.1814 10.9531 13.6001C10.9531 14.0189 11.1162 14.4205 11.4064 14.7166C11.6966 15.0127 12.0903 15.179 12.5007 15.179V15.1811ZM12.5007 13.0759C12.6027 13.0759 12.7025 13.1068 12.7873 13.1646C12.8722 13.2224 12.9383 13.3046 12.9773 13.4008C13.0164 13.497 13.0266 13.6028 13.0067 13.7049C12.9868 13.807 12.9376 13.9008 12.8655 13.9744C12.7933 14.048 12.7014 14.0981 12.6014 14.1184C12.5013 14.1387 12.3976 14.1283 12.3033 14.0885C12.209 14.0486 12.1285 13.9812 12.0718 13.8946C12.0151 13.8081 11.9849 13.7063 11.9849 13.6022C11.9849 13.4626 12.0392 13.3288 12.1359 13.2301C12.2327 13.1314 12.3639 13.0759 12.5007 13.0759Z" fill="#414042"/>
<path id="Vector_8" d="M17.1413 17.2864H7.85571C7.71889 17.2864 7.58768 17.3418 7.49094 17.4405C7.39419 17.5392 7.33984 17.6731 7.33984 17.8127V19.9179C7.33984 20.0575 7.39419 20.1914 7.49094 20.2901C7.58768 20.3888 7.71889 20.4442 7.85571 20.4442H17.1413C17.2781 20.4442 17.4093 20.3888 17.5061 20.2901C17.6028 20.1914 17.6572 20.0575 17.6572 19.9179V17.8127C17.6572 17.6731 17.6028 17.5392 17.5061 17.4405C17.4093 17.3418 17.2781 17.2864 17.1413 17.2864ZM13.5302 18.339V19.3916H11.4668V18.339H13.5302ZM8.37157 18.339H10.435V19.3916H8.37157V18.339ZM16.6254 19.3916H14.562V18.339H16.6254V19.3916Z" fill="#414042"/>
</g>
</g>
</svg>
