<svg width="25" height="25" viewBox="0 0 25 25" fill="none" xmlns="http://www.w3.org/2000/svg">
<g id="flash ">
<g id="Group">
<path id="Vector" d="M13.0299 18.5079V12.6136H19.9071C19.9766 12.6136 20.0454 12.6 20.1096 12.5734C20.1738 12.5468 20.2322 12.5079 20.2813 12.4587C20.3304 12.4096 20.3694 12.3513 20.396 12.2871C20.4226 12.2229 20.4362 12.1541 20.4362 12.0846V5.6613C20.9348 5.53254 21.3695 5.22632 21.6585 4.80005C21.9476 4.37378 22.0713 3.85672 22.0064 3.34578C21.9415 2.83485 21.6924 2.36512 21.306 2.02465C20.9195 1.68418 20.4222 1.49634 19.9071 1.49634C19.3921 1.49634 18.8947 1.68418 18.5083 2.02465C18.1218 2.36512 17.8728 2.83485 17.8079 3.34578C17.743 3.85672 17.8667 4.37378 18.1558 4.80005C18.4448 5.22632 18.8794 5.53254 19.3781 5.6613V11.5556H13.0299V5.6613C13.5286 5.53254 13.9632 5.22632 14.2522 4.80005C14.5413 4.37378 14.665 3.85672 14.6001 3.34578C14.5352 2.83485 14.2862 2.36512 13.8997 2.02465C13.5133 1.68418 13.0159 1.49634 12.5009 1.49634C11.9858 1.49634 11.4885 1.68418 11.102 2.02465C10.7156 2.36512 10.4666 2.83485 10.4017 3.34578C10.3368 3.85672 10.4604 4.37378 10.7495 4.80005C11.0386 5.22632 11.4732 5.53254 11.9719 5.6613V11.5556H5.62362V5.6613C6.1223 5.53254 6.55691 5.22632 6.84597 4.80005C7.13503 4.37378 7.25871 3.85672 7.19381 3.34578C7.12891 2.83485 6.8799 2.36512 6.49345 2.02465C6.107 1.68418 5.60964 1.49634 5.0946 1.49634C4.57956 1.49634 4.0822 1.68418 3.69575 2.02465C3.3093 2.36512 3.06028 2.83485 2.99539 3.34578C2.93049 3.85672 3.05416 4.37378 3.34323 4.80005C3.63229 5.22632 4.06689 5.53254 4.56558 5.6613V18.5079C4.06689 18.6366 3.63229 18.9428 3.34323 19.3691C3.05416 19.7954 2.93049 20.3124 2.99539 20.8234C3.06028 21.3343 3.3093 21.804 3.69575 22.1445C4.0822 22.485 4.57956 22.6728 5.0946 22.6728C5.60964 22.6728 6.107 22.485 6.49345 22.1445C6.8799 21.804 7.12891 21.3343 7.19381 20.8234C7.25871 20.3124 7.13503 19.7954 6.84597 19.3691C6.55691 18.9428 6.1223 18.6366 5.62362 18.5079V12.6136H11.9719V18.5079C11.4732 18.6366 11.0386 18.9428 10.7495 19.3691C10.4604 19.7954 10.3368 20.3124 10.4017 20.8234C10.4666 21.3343 10.7156 21.804 11.102 22.1445C11.4885 22.485 11.9858 22.6728 12.5009 22.6728C13.0159 22.6728 13.5133 22.485 13.8997 22.1445C14.2862 21.804 14.5352 21.3343 14.6001 20.8234C14.665 20.3124 14.5413 19.7954 14.2522 19.3691C13.9632 18.9428 13.5286 18.6366 13.0299 18.5079ZM18.8491 3.62026C18.8491 3.411 18.9112 3.20644 19.0274 3.03245C19.1437 2.85845 19.3089 2.72284 19.5023 2.64276C19.6956 2.56268 19.9083 2.54173 20.1136 2.58255C20.3188 2.62338 20.5073 2.72415 20.6553 2.87212C20.8033 3.02009 20.904 3.20861 20.9449 3.41385C20.9857 3.61909 20.9647 3.83183 20.8846 4.02516C20.8046 4.21849 20.669 4.38373 20.495 4.49999C20.321 4.61625 20.1164 4.6783 19.9071 4.6783C19.6266 4.67803 19.3577 4.56647 19.1593 4.36811C18.9609 4.16975 18.8494 3.90079 18.8491 3.62026ZM11.4428 3.62026C11.4428 3.411 11.5049 3.20644 11.6211 3.03245C11.7374 2.85845 11.9026 2.72284 12.096 2.64276C12.2893 2.56268 12.502 2.54173 12.7073 2.58255C12.9125 2.62338 13.101 2.72415 13.249 2.87212C13.397 3.02009 13.4978 3.20861 13.5386 3.41385C13.5794 3.61909 13.5585 3.83183 13.4784 4.02516C13.3983 4.21849 13.2627 4.38373 13.0887 4.49999C12.9147 4.61625 12.7101 4.6783 12.5009 4.6783C12.2203 4.67803 11.9514 4.56647 11.753 4.36811C11.5547 4.16975 11.4431 3.90079 11.4428 3.62026ZM4.03656 3.62026C4.03656 3.411 4.09861 3.20644 4.21487 3.03245C4.33113 2.85845 4.49637 2.72284 4.6897 2.64276C4.88304 2.56268 5.09577 2.54173 5.30101 2.58255C5.50625 2.62338 5.69478 2.72415 5.84274 2.87212C5.99071 3.02009 6.09148 3.20861 6.13231 3.41385C6.17313 3.61909 6.15218 3.83183 6.0721 4.02516C5.99202 4.21849 5.85641 4.38373 5.68241 4.49999C5.50842 4.61625 5.30386 4.6783 5.0946 4.6783C4.81407 4.67803 4.54512 4.56647 4.34675 4.36811C4.14839 4.16975 4.03683 3.90079 4.03656 3.62026ZM6.15264 20.5489C6.15264 20.7581 6.09058 20.9627 5.97433 21.1367C5.85807 21.3107 5.69282 21.4463 5.49949 21.5264C5.30616 21.6065 5.09342 21.6274 4.88819 21.5866C4.68295 21.5458 4.49442 21.445 4.34645 21.297C4.19848 21.1491 4.09771 20.9605 4.05689 20.7553C4.01606 20.5501 4.03702 20.3373 4.1171 20.144C4.19718 19.9507 4.33279 19.7854 4.50678 19.6692C4.68078 19.5529 4.88534 19.4908 5.0946 19.4908C5.37512 19.4911 5.64408 19.6027 5.84244 19.801C6.04081 19.9994 6.15236 20.2684 6.15264 20.5489ZM12.5009 21.6069C12.2916 21.6069 12.087 21.5449 11.9131 21.4286C11.7391 21.3124 11.6035 21.1471 11.5234 20.9538C11.4433 20.7604 11.4223 20.5477 11.4632 20.3425C11.504 20.1372 11.6048 19.9487 11.7527 19.8007C11.9007 19.6528 12.0892 19.552 12.2945 19.5112C12.4997 19.4704 12.7124 19.4913 12.9058 19.5714C13.0991 19.6515 13.2643 19.7871 13.3806 19.9611C13.4969 20.1351 13.5589 20.3396 13.5589 20.5489C13.5586 20.8294 13.4471 21.0984 13.2487 21.2967C13.0504 21.4951 12.7814 21.6067 12.5009 21.6069Z" fill="#414042"/>
<path id="Vector_2" d="M22.023 18.9613C22.0225 18.5405 21.8552 18.1371 21.5577 17.8396C21.2601 17.5421 20.8567 17.3747 20.4359 17.3743H18.32C18.2506 17.3742 18.1817 17.3879 18.1175 17.4145C18.0533 17.441 17.995 17.48 17.9459 17.5291C17.8967 17.5783 17.8578 17.6366 17.8312 17.7008C17.8046 17.765 17.791 17.8338 17.791 17.9033V22.1354C17.791 22.2757 17.8468 22.4103 17.946 22.5095C18.0452 22.6087 18.1797 22.6645 18.32 22.6645C18.4603 22.6645 18.5949 22.6087 18.6941 22.5095C18.7933 22.4103 18.8491 22.2757 18.8491 22.1354V20.5484H20.1091L21.0207 22.3719C21.0647 22.4599 21.1324 22.5338 21.2161 22.5854C21.2998 22.6371 21.3962 22.6645 21.4945 22.6645C21.5765 22.6646 21.6574 22.6455 21.7306 22.6087C21.7927 22.5776 21.8482 22.5346 21.8937 22.4821C21.9392 22.4296 21.974 22.3687 21.9959 22.3028C22.0179 22.2368 22.0267 22.1672 22.0217 22.0979C22.0168 22.0286 21.9983 21.961 21.9672 21.8988L21.1918 20.348C21.4423 20.213 21.6517 20.0129 21.7979 19.7689C21.9442 19.5248 22.022 19.2458 22.023 18.9613ZM18.8491 18.4323H20.4361C20.5764 18.4323 20.711 18.488 20.8102 18.5873C20.9094 18.6865 20.9651 18.821 20.9651 18.9613C20.9651 19.1016 20.9094 19.2362 20.8102 19.3354C20.711 19.4346 20.5764 19.4903 20.4361 19.4903H18.8491V18.4323Z" fill="#414042"/>
<path id="Vector_3" d="M19.9079 13.6711C19.8384 13.6711 19.7696 13.6848 19.7054 13.7113C19.6412 13.7379 19.5829 13.7769 19.5338 13.826C19.4846 13.8751 19.4457 13.9335 19.4191 13.9977C19.3925 14.0619 19.3789 14.1307 19.3789 14.2002V15.7872C19.3789 15.9275 19.4346 16.0621 19.5339 16.1613C19.6331 16.2605 19.7676 16.3162 19.9079 16.3162C20.0482 16.3162 20.1828 16.2605 20.282 16.1613C20.3812 16.0621 20.4369 15.9275 20.4369 15.7872V14.2002C20.437 14.1307 20.4233 14.0619 20.3968 13.9977C20.3702 13.9335 20.3312 13.8751 20.2821 13.826C20.233 13.7769 20.1746 13.7379 20.1104 13.7113C20.0462 13.6848 19.9774 13.6711 19.9079 13.6711Z" fill="#414042"/>
</g>
</g>
</svg>
